<?xml version="1.0" encoding="UTF-8"?>
<svg id="uuid-e7726d99-042f-4d62-b2f1-c21a958e064f" data-name="Capa 1" xmlns="http://www.w3.org/2000/svg" width="30cm" height="27.21cm" viewBox="0 0 850.39 771.21">
  <path id="uuid-1c5d3c8d-df5f-4d8a-bd7c-1faf4fb71b6e" data-name="O" d="M841.96,460.48c-28.23,164.63-212.37,309.83-394.04,310.73-225.78-3.26-333.38-99.22-443.02-263.85-4.31-6.4-5.84-14.08-4.34-21.68,1.54-7.6,5.92-14.19,12.43-18.5,13.22-8.84,31.19-5.24,40.1,7.98,101.36,152.16,194.36,235.17,395.13,238.17,155.38-.82,312.79-123.6,336.6-262.69,25.01-145.76-12.96-264.15-106.86-333.35-93.53-68.86-232.93-79.23-338.96-25.2-89.41,45.53-138.24,127.04-137.49,229.56.64,98.21,38.34,174.18,106.11,213.94,71.63,42.01,168.6,39.24,253.11-7.23,86.98-48.04,103.57-150.85,75-227.65-22.91-61.33-80.58-119.81-173.62-100.05-45.83,11.46-85.48,47.89-100.72,92.74-13.74,40.66-5.5,82.86,23.25,118.73,20.48,25.61,54.59,28.23,79.68,22.17,28.57-6.96,49.8-25.24,54.1-46.58,5.05-21.15,5.65-48.11-19.99-58.07-8.91-3.48-17.34-3.44-23.03-2.55.04.04.07.07.11.11,10.97,11.79,10.37,29.73-1.35,40.89-11.68,10.93-30.03,10.37-40.96-1.24-28.98-30.93-20.48-60.02-10.82-72.49,19.39-26.62,64.44-33.81,102.63-16.36,44.11,20.29,63.24,67.02,50.02,122.02-8.8,43.51-45.98,78.18-97.12,90.54-54.1,13.18-107.2-3.03-138.5-42.27-41.45-51.82-53.13-113.41-32.84-173.51,21.3-63.13,77.28-114.35,142.54-130.52,107.08-22.8,201.51,30.7,240.9,136.29,37.25,100.16,14.38,234.87-101.39,298.49-102.22,56.31-221.13,58.78-310.32,6.51-86.15-50.51-134.01-144.11-134.83-263.52-.41-66.16,17.49-128.09,51.78-179.09,14.49-21.53,31.6-40.92,51.22-58.07,19.62-17.11,41.75-32.01,66.24-44.48,124.61-63.58,288.9-51.15,399.51,30.22,112.59,82.9,158.68,221.36,129.74,389.85Z"/>
</svg>