<?xml version="1.0" encoding="UTF-8"?>
<svg id="uuid-3286551f-35fb-4446-a041-93a3a7794cfd" data-name="Capa 1" xmlns="http://www.w3.org/2000/svg" width="30cm" height="9.44cm" viewBox="0 0 850.39 267.58">
  <path id="uuid-5dc2c859-1c69-4676-a9df-22285a357bd0" data-name="K" d="M781.7,147.38l66.84,101.5c1.65,2.34,2.2,4.82,1.65,7.43-.55,2.61-2,4.68-4.33,6.19-2.2,1.51-4.61,2.03-7.22,1.55-2.61-.48-4.68-1.89-6.19-4.23l-65.19-98.61-35.28,33.63v59.41c0,2.75-.93,5.09-2.78,7.01-1.86,1.93-4.16,2.89-6.91,2.89s-5.09-.96-7.01-2.89c-1.93-1.92-2.89-4.26-2.89-7.01V9.99c0-2.75,1-5.09,2.99-7.01,1.99-1.92,4.3-2.89,6.91-2.89,2.75,0,5.05.96,6.91,2.89,1.86,1.93,2.78,4.26,2.78,7.01v159.06l99.23-95.52c2.06-1.92,4.37-2.82,6.91-2.68,2.54.14,4.71,1.17,6.5,3.09.27.28.41.55.41.83,1.65,1.93,2.44,4.13,2.37,6.6-.07,2.48-1.07,4.61-2.99,6.4l-62.71,59.62Z"/>
  <path id="uuid-7c63bb5a-70aa-4779-9861-638871dc7353" data-name="C" d="M528.54,167.19c0,.14-.14.48-.41,1.03l.21.41.21.21c0,10.31,1.92,20.15,5.78,29.5,3.85,9.35,9.14,17.57,15.89,24.65,6.74,7.09,14.75,12.76,24.03,17.02,9.28,4.26,19.29,6.4,30.02,6.4,9.9.14,19.25-1.37,28.06-4.54,8.8-3.16,16.92-8.11,24.34-14.85.96-.83,2.03-1.61,3.2-2.37,1.17-.75,2.4-1.31,3.71-1.65,1.31-.34,2.68-.34,4.13,0,1.44.34,2.92,1.21,4.44,2.58,2.2,1.93,3.26,4.3,3.2,7.12-.07,2.82-1.27,5.4-3.61,7.74-8.12,8.25-17.98,14.65-29.6,19.19-11.62,4.54-23.69,6.81-36.21,6.81-13.48,0-26.1-2.51-37.86-7.53-11.76-5.02-22.07-11.93-30.94-20.73-8.87-8.8-15.85-19.05-20.94-30.74-5.09-11.69-7.63-24.27-7.63-37.75,0-.55.07-1.03.21-1.44-.14-.27-.21-.62-.21-1.03,0-13.48,2.54-26.13,7.63-37.96,5.09-11.83,12.07-22.18,20.94-31.05,8.87-8.87,19.19-15.89,30.94-21.04,11.76-5.16,24.38-7.74,37.86-7.74,12.51,0,24.58,2.27,36.21,6.81,11.62,4.54,21.49,10.93,29.6,19.19,2.34,2.34,3.54,4.95,3.61,7.84.07,2.89-1,5.3-3.2,7.22-1.52,1.38-2.99,2.24-4.44,2.58-1.44.34-2.82.34-4.13,0-1.31-.34-2.55-.89-3.71-1.65-1.17-.75-2.24-1.55-3.2-2.37-7.29-6.6-15.37-11.55-24.24-14.85-8.87-3.3-18.26-4.88-28.16-4.74-10.59,0-20.49,2.13-29.71,6.4-9.22,4.26-17.23,9.94-24.03,17.02-6.81,7.09-12.17,15.34-16.09,24.76-3.92,9.42-5.88,19.29-5.88,29.6Z"/>
  <path id="uuid-896ceeb8-753d-4cc7-b2cb-ec620f8f1a15" data-name="L" d="M201.29,254.45c0,2.75-.96,5.05-2.89,6.91-1.93,1.86-4.26,2.78-7.01,2.78s-5.09-.93-7.01-2.78c-1.93-1.86-2.89-4.16-2.89-6.91V9.78c0-2.75.96-5.05,2.89-6.91,1.92-1.86,4.26-2.78,7.01-2.78s5.09.93,7.01,2.78c1.92,1.86,2.89,4.16,2.89,6.91v244.67Z"/>
  <g id="uuid-4c4b6e86-fc1b-4f65-b896-48c33d31845c" data-name="F">
    <g>
      <rect x="0" y="0" width="144.62" height="20.78" rx="10.16" ry="10.16"/>
      <path d="M113.87,132.15c0,2.64-1.07,5.03-2.8,6.76-1.17,1.17-2.65,2.04-4.3,2.48-.73.15-1.5.22-2.31.22H20.7v113.67c0,2.75-.93,5.05-2.78,6.91-1.86,1.85-4.16,2.78-6.91,2.78s-5.09-.93-7.01-2.78c-1.93-1.86-2.89-4.16-2.89-6.91v-125.4c.42-1.73,1.31-3.28,2.53-4.5,1.73-1.73,4.12-2.8,6.76-2.8h93.92c5.28,0,9.56,4.28,9.56,9.56Z"/>
    </g>
    <g>
      <rect x="0" y="0" width="144.62" height="20.78" rx="10.16" ry="10.16"/>
      <path d="M113.87,132.15c0,2.64-1.07,5.03-2.8,6.76-1.17,1.17-2.65,2.04-4.3,2.48-.73.15-1.5.22-2.31.22H20.7v113.67c0,2.75-.93,5.05-2.78,6.91-1.86,1.85-4.16,2.78-6.91,2.78s-5.09-.93-7.01-2.78c-1.93-1.86-2.89-4.16-2.89-6.91v-125.4c.42-1.73,1.31-3.28,2.53-4.5,1.73-1.73,4.12-2.8,6.76-2.8h93.92c5.28,0,9.56,4.28,9.56,9.56Z"/>
    </g>
  </g>
  <path id="uuid-f4956352-4c07-4a97-9af7-dc545e3d4a52" data-name="O" d="M468.98,182.73c-7.71,44.96-57.99,84.61-107.6,84.85-61.65-.89-91.04-27.09-120.97-72.05-1.18-1.75-1.59-3.84-1.19-5.92.42-2.08,1.62-3.87,3.39-5.05,3.61-2.41,8.52-1.43,10.95,2.18,27.68,41.55,53.07,64.22,107.9,65.04,42.43-.22,85.41-33.75,91.92-71.73,6.83-39.8-3.54-72.13-29.18-91.03-25.54-18.8-63.61-21.63-92.56-6.88-24.42,12.43-37.75,34.69-37.54,62.69.17,26.82,10.47,47.56,28.98,58.42,19.56,11.47,46.04,10.72,69.12-1.97,23.75-13.12,28.28-41.19,20.48-62.16-6.26-16.75-22-32.72-47.41-27.32-12.51,3.13-23.34,13.08-27.5,25.33-3.75,11.1-1.5,22.63,6.35,32.42,5.59,6.99,14.91,7.71,21.76,6.05,7.8-1.9,13.6-6.89,14.77-12.72,1.38-5.78,1.54-13.14-5.46-15.86-2.43-.95-4.73-.94-6.29-.7.01.01.02.02.03.03,3,3.22,2.83,8.12-.37,11.16-3.19,2.99-8.2,2.83-11.19-.34-7.91-8.45-5.59-16.39-2.95-19.79,5.3-7.27,17.6-9.23,28.02-4.47,12.04,5.54,17.27,18.3,13.66,33.32-2.4,11.88-12.56,21.35-26.52,24.72-14.77,3.6-29.27-.83-37.82-11.54-11.32-14.15-14.51-30.97-8.97-47.38,5.82-17.24,21.1-31.23,38.92-35.64,29.24-6.23,55.03,8.38,65.78,37.22,10.17,27.35,3.93,64.14-27.69,81.51-27.91,15.38-60.38,16.05-84.74,1.78-23.53-13.79-36.59-39.35-36.82-71.96-.11-18.07,4.77-34.98,14.14-48.9,3.96-5.88,8.63-11.18,13.99-15.86,5.36-4.67,11.4-8.74,18.09-12.15,34.03-17.36,78.89-13.97,109.09,8.25,30.74,22.64,43.33,60.45,35.43,106.46Z"/>
</svg>