<?xml version="1.0" encoding="UTF-8"?>
<svg id="uuid-96383f62-e105-4819-a6e4-0a899f751c1f" data-name="Capa 1" xmlns="http://www.w3.org/2000/svg" width="30cm" height="15.72cm" viewBox="0 0 850.39 445.5">
  <defs>
    <style>
      .uuid-66138616-47f5-405b-becf-edf5215d1fa4 {
        fill: #fff;
      }
    </style>
  </defs>
  <g id="uuid-a63c565d-0678-4457-9f33-fb8a5ab7eaa8" data-name="pGO9DS">
    <g>
      <path d="M508.99,275.63c7.78,13.54,17.37,22.77,30.78,28.07,11.76,4.58,23.96,6.94,36.85,6.25,46.78-2.52,85.61-34.25,98.53-79.02,9.61-33.3,1.06-68.49-32.82-81.9-37.44-14.81-82.65-.38-109.57,30.29,1.1-48.03-9.62-87.45-39.85-123.38l-9.8-11.61C552.56,6.17,632.83-7.33,709.49,9.43c29.68,6.49,56.85,18.46,80.63,36.8,48.09,37.1,66.25,93.16,58.59,152.77-6.32,49.17-27.22,94.85-58.77,133.11-59.22,71.83-152.3,110.81-244.41,113.36-29.32.4-57.48-3.32-85.64-11.07-22.76-6.63-44.08-15.65-63.75-30.08,49.39-32,87.8-75.08,112.86-128.69Z"/>
      <g>
        <path d="M295.94,430.02c-59.63,15.59-121.11,18.66-180.06-.81C36.72,403.06-7.6,339.97,1.08,255.42c6.06-59.09,32.24-113.28,73.33-156.1C138.72,32.29,231.94-2.77,324.44.17c46.5,1.48,94.14,14.26,131.47,42.47,32.66,24.69,53.76,60.55,59.11,101.26,3.5,26.6,1.13,52.21-5.28,78.29-13.47,54.81-43.16,103.47-85.74,140.63-36.79,32.11-80.63,54.8-128.07,67.21ZM250.25,306.61c53.77-5.98,95.89-52.02,95.63-106.09-.1-19.9-9.92-37.78-25.8-48.4-17.28-11.55-37.26-13.47-57.21-9.98-43.3,7.57-78.76,38.2-89.96,81.07-3.01,11.52-3.81,23.16-1.93,34.83,6.17,38.25,43.99,52.51,79.27,48.59Z"/>
        <path class="uuid-66138616-47f5-405b-becf-edf5215d1fa4" d="M250.25,306.61c-35.28,3.92-73.1-10.33-79.27-48.59-1.88-11.66-1.08-23.31,1.93-34.83,11.2-42.87,46.66-73.49,89.96-81.07,19.95-3.49,39.93-1.57,57.21,9.98,15.88,10.62,25.7,28.51,25.8,48.4.26,54.07-41.86,100.12-95.63,106.09Z"/>
      </g>
    </g>
  </g>
</svg>