<?xml version="1.0" encoding="UTF-8"?>
<svg id="uuid-6070a611-9fdd-4450-92e8-1ac512086c60" data-name="Capa 1" xmlns="http://www.w3.org/2000/svg" width="25.36cm" height="30cm" viewBox="0 0 718.99 850.39">
  <defs>
    <style>
      .uuid-3247d4a5-4939-4888-b9f9-044409636bd3 {
        fill: #030303;
      }

      .uuid-90117226-ab27-444c-8af3-4b3765c49624 {
        fill: #020202;
      }
    </style>
  </defs>
  <g id="uuid-b32897de-3cfe-4053-80ac-d0760f79d8cc" data-name="PHTRcM.tif">
    <g>
      <g>
        <path class="uuid-90117226-ab27-444c-8af3-4b3765c49624" d="M491.27,644.79l-250.32,65.33-69.93,114.37c-15.79,25.83-48.74,33.28-74.28,18.1-23.82-14.15-35.46-47.25-19.98-73.15l240.88-403.14,191.28,110.25c19,10.95,30.12,28.75,36.7,49.05,6.86,27.83,4.66,57.16-10.24,82.13-9.78,16.39-23.93,31.78-44.12,37.05ZM319.63,587.87l124.46-42.75-86.26-42.63-46.38,84.56c2.77,1.91,4.77,1.09,8.19.82Z"/>
        <path class="uuid-3247d4a5-4939-4888-b9f9-044409636bd3" d="M156.37,553.79L9.89,468.4c-8.87-5.17-12.67-17.59-7.65-26.12l50.37-85.55c6.41-10.89,18.31-16.47,29.96-9.96l34.05,19.04,101.64-179.99,152.69-32.14c30.81-6.49,59.81,10.81,66.33,41.03,6.29,29.18-12.13,58.02-42.6,64.46l-113.43,23.98-78.65,130.81c9.22,7.36,18.61,12.37,27.66,18.82,9.61,6.86,12.09,19.2,5.76,29.21l-54.06,85.49c-4.52,7.15-16.56,11.58-25.57,6.33ZM164.53,539.2c2.53,1.5,9.23-.27,8.74-2.13l-18.87-72.63,74.35-13.04c.55-1.99-.02-9.37-2.46-8.97l-109,17.96-42.23-107.33c-3.81.56-6.28,1.21-8.76,3.71l30.12,78.06-86.61,11.09c-.21,3.12-.37,9.33,1.71,9.09l88.69-10.2,11.19,26.35,32.59-4.73,20.54,72.76Z"/>
      </g>
      <g>
        <path class="uuid-3247d4a5-4939-4888-b9f9-044409636bd3" d="M542.25,0c.21.4.77,1.5,1.95,1.66,35.82,4.8,60.65,35.87,58.67,70.84-1.99,35.23-30.65,62.44-65.28,63.48-35.55,1.07-65.38-25.84-68.96-60.17-3.68-35.38,19.64-66.92,54.74-73.56,1.73-.33,2.6-1.57,3.17-2.26h15.7Z"/>
        <path class="uuid-3247d4a5-4939-4888-b9f9-044409636bd3" d="M445.62,339.99l54.81-88.11,89-.29,38.73-80.38c11.49-23.85,41.22-31.53,63.4-20.82,23.98,11.58,33.99,39.39,22.95,64.12l-56.08,125.68-212.82-.19Z"/>
      </g>
    </g>
  </g>
</svg>