<?xml version="1.0" encoding="UTF-8"?>
<svg id="uuid-acfd7157-a045-4dba-b215-04f84597f185" data-name="Capa 1" xmlns="http://www.w3.org/2000/svg" width="30cm" height="28.66cm" viewBox="0 0 850.39 812.35">
  <path d="M380.2,1.01C157.89,1.48-.81,191.73,0,410.57l1.52,401.42,435.18-.31c220.24,12.77,412.52-156.95,412.91-380.35l.78-431.33-470.2,1.01ZM665.87,367.22c22.94.19,38.71,24.5,45.84,39.53,9.58,20.25,5.14,46.03-6.11,65.47-36.73,63.4-83.38,117.31-144.65,157.46-108.78,71.23-244.66,85.33-347.24-4.25-33.22-29.01-59-62.78-79.68-103.25l94.09-.7c32.01,53.16,86.66,87.51,151.5,83.5,106.32-6.58,203.96-68.62,255.6-165.48l-450.22.47c-39.69.04-61.53-52.62-48.18-86.93,29.17-74.97,79.84-138.34,149.32-180.01,140.75-84.51,369.09-65.9,431.37,108.66l-82.92.43c-46.07-60.25-116.45-93.12-193.87-81.83-95.96,13.94-180.67,74.27-221.6,162.76l446.75,4.17Z"/>
</svg>